<?xml version="1.0" encoding="utf-8"?>
<!-- Generator: Adobe Illustrator 21.1.0, SVG Export Plug-In . SVG Version: 6.00 Build 0)  -->
<svg version="1.1" xmlns="http://www.w3.org/2000/svg" xmlns:xlink="http://www.w3.org/1999/xlink" x="0px" y="0px"
	 viewBox="0 0 214.8 40.2" style="enable-background:new 0 0 214.8 40.2;" xml:space="preserve">
<style type="text/css">
	.st0{fill:#1D4864;}
</style>
<g id="Ebene_1">
</g>
<g id="Logo_x5F_02">
	<g>
		<path class="st0" d="M14.4,2.3c0.5-1.2,1.4-1.7,2.6-1.7c1.1,0,2.1,0.5,2.6,1.7l14.2,37.4h-3.9l-3.3-8.8H7.3l-3.4,8.8H0.1L14.4,2.3
			z M16.9,4.9L8.3,27.7h17.1L16.9,4.9z"/>
		<path class="st0" d="M41.5,39.7c-2.1,0-3.3-1.1-3.3-3.1V4.1c0-2,1.3-3.2,3.3-3.2h9.9c9,0,17,5.3,17,19.4s-8.1,19.4-17.1,19.4H41.5
			z M51.3,36.3c6.9,0,13.4-3.8,13.4-16.1c0-12.3-6.4-16.1-13.5-16.1h-9.4v32.2H51.3z"/>
		<path class="st0" d="M104.8,35.3l6.8-34.4h3.4l-7.4,37.2c-0.3,1.4-1.5,1.9-2.8,1.9c-1.3,0-2.3-0.5-2.8-1.9l-9.6-33l-9.8,33
			c-0.4,1.4-1.5,1.9-2.8,1.9c-1.3,0-2.4-0.5-2.7-1.9L69.7,0.9h3.5L80,35.4l9.8-32.6c0.4-1.4,1.3-1.9,2.6-1.9s2.2,0.5,2.7,1.9
			L104.8,35.3z"/>
		<path class="st0" d="M151.7,28.6v11h-3.5V0.9h3.5v22.9l19.2-22.9h4.5l-10.2,11.9L177,39.7h-3.9l-10.6-23.8L151.7,28.6z"/>
		<path class="st0" d="M179.7,20.3c0-14.5,8.3-19.9,17.5-19.9c9.2,0,17.5,5.4,17.5,19.9s-8.2,19.9-17.5,19.9
			C187.9,40.2,179.7,34.8,179.7,20.3z M197.2,3.6c-7.2,0-13.8,4-13.8,16.7s6.4,16.8,14,16.8c7.2,0,13.6-4.1,13.6-16.8
			S204.7,3.6,197.2,3.6z"/>
		<rect x="118.4" y="18.1" class="st0" width="24.2" height="3.4"/>
		<path class="st0" d="M131.7,0.9h-9.9h-0.2v0c-2,0.1-3.2,1.2-3.2,3.2v0.2h3.2h0.4h11.7h8.7h0.1V0.9H131.7z"/>
		<path class="st0" d="M131.7,39.7h-9.9h-0.2v0c-2-0.1-3.2-1.2-3.2-3.2v-0.2h3.2h0.4h11.7h8.7h0.1v3.4H131.7z"/>
	</g>
</g>
</svg>
